<?xml version="1.0" encoding="utf-8"?>
<!-- Generator: Adobe Illustrator 22.0.1, SVG Export Plug-In . SVG Version: 6.00 Build 0)  -->
<svg version="1.1" id="Calque_1" xmlns="http://www.w3.org/2000/svg" xmlns:xlink="http://www.w3.org/1999/xlink" x="0px" y="0px"
	 viewBox="0 0 1920 1080" style="enable-background:new 0 0 1920 1080;" xml:space="preserve">
<style type="text/css">
	.st0{font-family:'Dekar';}
	.st1{font-size:251.6796px;}
	.st2{fill:url(#SVGID_1_);}
	.st3{fill:url(#SVGID_2_);}
	.st4{fill:url(#SVGID_3_);}
	.st5{fill:url(#SVGID_4_);}
	.st6{fill:url(#SVGID_5_);}
	.st7{fill:url(#SVGID_6_);}
	.st8{fill:url(#SVGID_7_);}
	.st9{fill:url(#SVGID_8_);}
	.st10{fill:url(#SVGID_9_);}
	.st11{fill:#FFFFFF;}
	.st12{fill:url(#SVGID_10_);}
	.st13{fill-rule:evenodd;clip-rule:evenodd;fill:#595959;}
	.st14{fill:url(#SVGID_11_);}
	.st15{fill:#636766;}
	.st16{fill:url(#SVGID_12_);}
	.st17{fill:url(#SVGID_13_);}
	.st18{fill-rule:evenodd;clip-rule:evenodd;fill:#636766;}
	.st19{fill-rule:evenodd;clip-rule:evenodd;fill:#FFFFFF;}
	.st20{fill-rule:evenodd;clip-rule:evenodd;fill:url(#SVGID_14_);}
	.st21{fill-rule:evenodd;clip-rule:evenodd;fill:url(#SVGID_15_);}
	.st22{fill-rule:evenodd;clip-rule:evenodd;fill:url(#SVGID_16_);}
	.st23{fill-rule:evenodd;clip-rule:evenodd;fill:url(#SVGID_17_);}
	.st24{fill-rule:evenodd;clip-rule:evenodd;fill:url(#SVGID_18_);}
	.st25{fill-rule:evenodd;clip-rule:evenodd;fill:url(#SVGID_19_);}
	.st26{fill-rule:evenodd;clip-rule:evenodd;fill:url(#SVGID_20_);}
	.st27{fill-rule:evenodd;clip-rule:evenodd;fill:url(#SVGID_21_);}
	.st28{fill-rule:evenodd;clip-rule:evenodd;fill:url(#SVGID_22_);}
	.st29{fill-rule:evenodd;clip-rule:evenodd;fill:url(#SVGID_23_);}
	.st30{fill-rule:evenodd;clip-rule:evenodd;fill:#696D6C;}
	.st31{fill:url(#SVGID_24_);}
	.st32{fill:#808285;}
</style>
<g>
	<text transform="matrix(1 0 0 1 627.4204 452.6641)" class="st0 st1">CLUB</text>
	<g>
		<linearGradient id="SVGID_1_" gradientUnits="userSpaceOnUse" x1="690.537" y1="201.313" x2="709.897" y2="1232.2313">
			<stop  offset="0" style="stop-color:#5EC199"/>
			<stop  offset="6.896744e-02" style="stop-color:#5DBA9B"/>
			<stop  offset="0.1779" style="stop-color:#58ADA0"/>
			<stop  offset="0.3132" style="stop-color:#4F98A6"/>
			<stop  offset="0.468" style="stop-color:#467CAA"/>
			<stop  offset="0.608" style="stop-color:#3E60AD"/>
		</linearGradient>
		<path class="st2" d="M717.7,569c8.1,3.3,15.4,6.6,21.9,10c6.5,3.4,12.1,7.5,16.7,12.2c4.6,4.7,8.2,10.5,10.7,17.1
			c2.5,6.7,3.8,14.8,3.8,24.2c0,10.3-1.8,19.5-5.4,27.7c-3.6,8.2-8.9,15.3-15.8,21.2c-7,5.9-15.5,10.5-25.7,13.6
			c-10.2,3.2-21.8,4.8-35,4.8c-12,0-22.6-1-31.8-2.9c-9.2-1.9-19.1-4.9-29.8-9c0.8-6.8,2.1-14,4.1-21.6c1.9-7.6,4.3-15.4,7-23.4
			c17.8,7.7,33.3,11.6,46.5,11.6c9.9,0,17.6-1.5,23.1-4.5c5.5-3,8.3-8.2,8.3-15.5c0-3.1-0.6-5.8-1.7-8c-1.2-2.2-2.7-4.1-4.6-5.7
			c-1.9-1.5-4.1-2.9-6.5-3.9c-2.4-1.1-4.9-2.1-7.4-3l-16.3-6.1c-7-2.5-13.3-5.5-19-9c-5.7-3.5-10.6-7.6-14.7-12.3
			c-4.1-4.7-7.2-10.2-9.4-16.4c-2.2-6.2-3.3-13.5-3.3-21.8c0-10.3,1.7-19.4,5.2-27.3c3.5-7.9,8.4-14.7,14.7-20.2
			c6.3-5.5,13.9-9.7,22.8-12.5c8.9-2.8,18.9-4.2,29.9-4.2c9.9,0,19.4,1,28.6,2.9c9.2,1.9,19,4.7,29.5,8.4c-0.8,6.2-2.2,13-4.2,20.5
			c-2,7.5-4.6,14.5-7.7,21.1c-5-2.1-10.9-4.4-17.7-6.7c-6.8-2.3-15.2-3.5-25.3-3.5c-3.1,0-6.1,0.3-8.9,0.9c-2.8,0.6-5.3,1.5-7.6,2.8
			c-2.2,1.3-4,3-5.4,5.2c-1.4,2.2-2,5-2,8.3c0,5.6,1.8,9.8,5.5,12.5c3.7,2.7,8,5,13.1,7L717.7,569z"/>
		<linearGradient id="SVGID_2_" gradientUnits="userSpaceOnUse" x1="857.4876" y1="198.1778" x2="876.8476" y2="1229.0961">
			<stop  offset="0" style="stop-color:#5EC199"/>
			<stop  offset="6.896744e-02" style="stop-color:#5DBA9B"/>
			<stop  offset="0.1779" style="stop-color:#58ADA0"/>
			<stop  offset="0.3132" style="stop-color:#4F98A6"/>
			<stop  offset="0.468" style="stop-color:#467CAA"/>
			<stop  offset="0.608" style="stop-color:#3E60AD"/>
		</linearGradient>
		<path class="st3" d="M898.4,488.3c4.5-0.8,9.1-1.4,13.9-1.7c4.8-0.4,9.8-0.6,14.8-0.6c3.3,0,7.6,0.2,12.8,0.7
			c5.2,0.5,9.7,1,13.4,1.6l-64.8,133.3v74.1c-10.3,1.7-18.8,2.6-25.6,2.6c-7.2,0-15.8-0.9-25.8-2.6v-74.1
			c-5-10.5-10.3-21.3-15.8-32.7c-5.5-11.3-11-22.7-16.6-34c-5.5-11.3-11-22.7-16.4-34c-5.4-11.3-10.6-22.2-15.7-32.7
			c3.3-0.6,7.7-1.1,13.4-1.6c5.6-0.5,10.9-0.7,16-0.7c4.1,0,8.6,0.2,13.5,0.7c4.9,0.5,9.2,1,12.9,1.6l35.7,80.7L898.4,488.3z"/>
		<linearGradient id="SVGID_3_" gradientUnits="userSpaceOnUse" x1="1041.474" y1="194.7227" x2="1060.834" y2="1225.641">
			<stop  offset="0" style="stop-color:#5EC199"/>
			<stop  offset="6.896744e-02" style="stop-color:#5DBA9B"/>
			<stop  offset="0.1779" style="stop-color:#58ADA0"/>
			<stop  offset="0.3132" style="stop-color:#4F98A6"/>
			<stop  offset="0.468" style="stop-color:#467CAA"/>
			<stop  offset="0.608" style="stop-color:#3E60AD"/>
		</linearGradient>
		<path class="st4" d="M970.7,488.3c4.3-0.8,8.1-1.4,11.6-1.7c3.5-0.4,6.9-0.6,10.2-0.6c3.5,0,7.1,0.2,10.9,0.7c3.8,0.5,7,1,9.7,1.6
			l67.4,113.8V488.3c5-0.8,9.6-1.4,13.7-1.7c4.1-0.4,7.7-0.6,11-0.6c3.3,0,6.8,0.2,10.5,0.6c3.7,0.4,7.6,1,11.6,1.7l-0.3,207.3
			c-1.9,0.6-4.7,1.2-8.4,1.7c-3.7,0.6-7.6,0.9-11.9,0.9c-4.8,0-9.2-0.3-13.1-1c-3.9-0.7-6.7-1.2-8.4-1.6l-67.7-113.3v113.3
			c-8.5,1.7-16.3,2.6-23.2,2.6s-14.8-0.9-23.5-2.6V488.3z"/>
		<linearGradient id="SVGID_4_" gradientUnits="userSpaceOnUse" x1="1228.369" y1="191.2129" x2="1247.729" y2="1222.1312">
			<stop  offset="0" style="stop-color:#5EC199"/>
			<stop  offset="6.896744e-02" style="stop-color:#5DBA9B"/>
			<stop  offset="0.1779" style="stop-color:#58ADA0"/>
			<stop  offset="0.3132" style="stop-color:#4F98A6"/>
			<stop  offset="0.468" style="stop-color:#467CAA"/>
			<stop  offset="0.608" style="stop-color:#3E60AD"/>
		</linearGradient>
		<path class="st5" d="M1196.3,695.9c-4.5,0.8-8.5,1.4-12.2,1.7c-3.7,0.4-7.3,0.6-10.7,0.6c-3.5,0-7.5-0.2-12.1-0.7
			c-4.6-0.5-9.6-1.2-15.2-2.2l65.1-207.3c5-0.6,9.7-1.1,14.1-1.5c4.4-0.4,8.8-0.6,13.2-0.6c3.7,0,7.7,0.2,12.1,0.6
			c4.4,0.4,9.3,0.9,15,1.5l64.2,207.6c-11,1.7-20.7,2.6-29,2.6c-3.9,0-7.7-0.2-11.6-0.6c-3.9-0.4-8-1-12.5-1.7l-11-40.4
			c-5.4,1.6-10.6,2.7-15.5,3.5c-4.9,0.8-9.8,1.2-14.7,1.2c-4.5,0-9-0.3-13.7-1c-4.6-0.7-9.5-1.7-14.5-3L1196.3,695.9z M1237,542.6
			l-19.5,74.6c3.3,1,6.4,1.7,9.3,2.3c2.9,0.6,5.9,0.9,9,0.9c3.3,0,6.5-0.2,9.7-0.7c3.2-0.5,6.5-1.2,10-2.2L1237,542.6z"/>
		<linearGradient id="SVGID_5_" gradientUnits="userSpaceOnUse" x1="1411.6843" y1="187.7703" x2="1431.0443" y2="1218.6886">
			<stop  offset="0" style="stop-color:#5EC199"/>
			<stop  offset="6.896744e-02" style="stop-color:#5DBA9B"/>
			<stop  offset="0.1779" style="stop-color:#58ADA0"/>
			<stop  offset="0.3132" style="stop-color:#4F98A6"/>
			<stop  offset="0.468" style="stop-color:#467CAA"/>
			<stop  offset="0.608" style="stop-color:#3E60AD"/>
		</linearGradient>
		<path class="st6" d="M1348.5,488.3c4.5-0.6,11.3-1.4,20.5-2.5c9.2-1.1,20.8-1.6,34.7-1.6c10.3,0,20.6,1,31.1,2.9
			c10.5,1.9,19.9,5.6,28.3,10.9c8.4,5.3,15.2,12.8,20.5,22.5c5.2,9.7,7.8,22.3,7.8,37.8c0,13.7-2.1,25.2-6.2,34.3
			c-4.2,9.1-9.7,16.4-16.6,21.8c-6.9,5.4-14.7,9.3-23.5,11.6c-8.8,2.3-17.9,3.5-27.2,3.5c-3.7,0-7.4-0.1-11.2-0.4
			c-3.8-0.3-6.4-0.6-8-1v67.7c-5,1-9.6,1.6-13.6,2c-4.1,0.4-7.8,0.6-11.3,0.6c-6.8,0-15.2-0.9-25.3-2.6V488.3z M1398.7,586.4
			c1,0.4,2.6,0.7,4.9,0.9c2.3,0.2,4.7,0.3,7.3,0.3c8.3,0,15.1-2.4,20.3-7.3c5.2-4.8,7.8-12.2,7.8-22.1c0-5.8-0.8-10.7-2.5-14.7
			c-1.6-4-3.9-7.2-6.8-9.6c-2.9-2.4-6.3-4.1-10.2-5.1c-3.9-1-7.9-1.5-12.2-1.5c-1.2,0-2.5,0-4.1,0c-1.6,0-3.1,0.1-4.6,0.3V586.4z"/>
		<linearGradient id="SVGID_6_" gradientUnits="userSpaceOnUse" x1="1572.1652" y1="184.7566" x2="1591.5251" y2="1215.6749">
			<stop  offset="0" style="stop-color:#5EC199"/>
			<stop  offset="6.896744e-02" style="stop-color:#5DBA9B"/>
			<stop  offset="0.1779" style="stop-color:#58ADA0"/>
			<stop  offset="0.3132" style="stop-color:#4F98A6"/>
			<stop  offset="0.468" style="stop-color:#467CAA"/>
			<stop  offset="0.608" style="stop-color:#3E60AD"/>
		</linearGradient>
		<path class="st7" d="M1599.7,569c8.1,3.3,15.4,6.6,21.9,10c6.5,3.4,12.1,7.5,16.7,12.2c4.6,4.7,8.2,10.5,10.7,17.1
			c2.5,6.7,3.8,14.8,3.8,24.2c0,10.3-1.8,19.5-5.4,27.7c-3.6,8.2-8.9,15.3-15.8,21.2c-7,5.9-15.5,10.5-25.7,13.6
			c-10.2,3.2-21.8,4.8-35,4.8c-12,0-22.6-1-31.8-2.9c-9.2-1.9-19.1-4.9-29.8-9c0.8-6.8,2.1-14,4.1-21.6c1.9-7.6,4.3-15.4,7-23.4
			c17.8,7.7,33.3,11.6,46.5,11.6c9.9,0,17.6-1.5,23.1-4.5c5.5-3,8.3-8.2,8.3-15.5c0-3.1-0.6-5.8-1.7-8c-1.2-2.2-2.7-4.1-4.6-5.7
			c-1.9-1.5-4.1-2.9-6.5-3.9c-2.4-1.1-4.9-2.1-7.4-3l-16.3-6.1c-7-2.5-13.3-5.5-19-9c-5.7-3.5-10.6-7.6-14.7-12.3
			c-4.1-4.7-7.2-10.2-9.4-16.4c-2.2-6.2-3.3-13.5-3.3-21.8c0-10.3,1.7-19.4,5.2-27.3c3.5-7.9,8.4-14.7,14.7-20.2
			c6.3-5.5,13.9-9.7,22.8-12.5c8.9-2.8,18.9-4.2,29.9-4.2c9.9,0,19.4,1,28.6,2.9c9.2,1.9,19,4.7,29.5,8.4c-0.8,6.2-2.2,13-4.2,20.5
			c-2,7.5-4.6,14.5-7.7,21.1c-5-2.1-10.9-4.4-17.7-6.7c-6.8-2.3-15.2-3.5-25.3-3.5c-3.1,0-6.1,0.3-8.9,0.9c-2.8,0.6-5.3,1.5-7.6,2.8
			c-2.2,1.3-4,3-5.4,5.2c-1.4,2.2-2,5-2,8.3c0,5.6,1.8,9.8,5.5,12.5c3.7,2.7,8,5,13.1,7L1599.7,569z"/>
		<linearGradient id="SVGID_7_" gradientUnits="userSpaceOnUse" x1="1736.6709" y1="181.6673" x2="1756.0309" y2="1212.5856">
			<stop  offset="0" style="stop-color:#5EC199"/>
			<stop  offset="6.896744e-02" style="stop-color:#5DBA9B"/>
			<stop  offset="0.1779" style="stop-color:#58ADA0"/>
			<stop  offset="0.3132" style="stop-color:#4F98A6"/>
			<stop  offset="0.468" style="stop-color:#467CAA"/>
			<stop  offset="0.608" style="stop-color:#3E60AD"/>
		</linearGradient>
		<path class="st8" d="M1792.2,587.6c0,6.8-0.9,14.3-2.6,22.6h-56v41.2h72.9c1.7,8.1,2.6,15.5,2.6,22.1c0,7.2-0.9,14.8-2.6,22.9
			h-124.3V487.7h122.5c0.8,4.3,1.4,8.2,1.7,11.9c0.4,3.7,0.6,7.2,0.6,10.5c0,6.4-0.8,14-2.3,22.9h-71.1v31.9h56
			C1791.3,573.5,1792.2,581,1792.2,587.6z"/>
	</g>
	<g>
		<linearGradient id="SVGID_8_" gradientUnits="userSpaceOnUse" x1="305.6067" y1="540.6722" x2="309.8724" y2="767.8253">
			<stop  offset="0" style="stop-color:#5EC199"/>
			<stop  offset="0.608" style="stop-color:#3E60AD"/>
		</linearGradient>
		<path class="st9" d="M350.1,624L232.3,751c-22.4,24.1-60,25.5-84.2,3.2l0,0L347,539.9l0.3,0.3l43.4,40.2l69.3,64.2
			c12.1,11.2,12.8,30,1.6,42.1l0,0c-11.2,12.1-30,12.8-42.1,1.6L350.1,624z"/>
		<path d="M325.4,392.9l118.8-126.1c22.6-23.9,60.2-25.1,84.2-2.5v0L327.9,477.1l-0.3-0.3l-43-40.6l-68.7-64.8
			c-12-11.3-12.5-30.1-1.2-42.1l0,0c11.3-12,30.1-12.5,42.1-1.2L325.4,392.9z"/>
		<linearGradient id="SVGID_9_" gradientUnits="userSpaceOnUse" x1="477.7892" y1="369.4987" x2="483.8427" y2="691.8492">
			<stop  offset="0" style="stop-color:#5EC199"/>
			<stop  offset="0.608" style="stop-color:#3E60AD"/>
		</linearGradient>
		<path class="st10" d="M450.2,488.7l127.6,117.2c24.2,22.2,25.8,59.9,3.6,84.1l0,0L366.1,492.3l0.3-0.3l40-43.6l63.9-69.6
			c11.1-12.1,30-12.9,42.1-1.8l0,0c12.1,11.1,12.9,30,1.8,42.1L450.2,488.7z"/>
		<path d="M219.5,516.2l-126-118.9c-23.9-22.6-25-60.3-2.4-84.2l0,0l212.6,200.6l-0.3,0.3l-40.6,43L198,625.8
			c-11.3,12-30.1,12.5-42.1,1.2h0c-12-11.3-12.5-30.1-1.2-42.1L219.5,516.2z"/>
		<path class="st11" d="M421.5,504.1l-63.7,87.8c-3.9,5.3-11.4,6.5-16.8,2.7l-87.8-63.7c-5.3-3.9-6.5-11.4-2.7-16.8l63.7-87.8
			c3.9-5.3,11.4-6.5,16.8-2.7l87.8,63.7C424.1,491.2,425.3,498.8,421.5,504.1z"/>
		<linearGradient id="SVGID_10_" gradientUnits="userSpaceOnUse" x1="495.5244" y1="690.0222" x2="496.5241" y2="743.2529">
			<stop  offset="0" style="stop-color:#5EC199"/>
			<stop  offset="0.608" style="stop-color:#3E60AD"/>
		</linearGradient>
		<circle class="st12" cx="496" cy="716.6" r="26.6"/>
		<circle cx="549.3" cy="339.7" r="26.6"/>
	</g>
	<g>
		<g>
			<path class="st13" d="M1236.4,766.3c-0.7-0.6-0.7-1.3-0.7-1.3v-1.7h-7.5l-0.3,1.7c0,0,0,0.7-0.7,1c-0.7,0.6-1,1-0.7,1
				c0.3,0,5.1,0,5.4,0c0.3,0,4.7,0,5,0C1237.7,767,1237,766.6,1236.4,766.3L1236.4,766.3z M1247.5,757.8L1247.5,757.8h-31.4V741
				h31.4V757.8z M1248.2,738.6h-32.8c-1,0-1.7,0.3-1.7,1.3v20.6c0,1,0.7,1,1.7,1h32.8c1,0,1.7,0,1.7-1V740
				C1249.9,738.9,1249.2,738.6,1248.2,738.6L1248.2,738.6z M1263.7,820.9c-0.7-0.3-0.7-1-0.7-1v-1.7h-7.4l-0.3,1.7c0,0,0,0.6-0.7,1
				c-0.7,0.7-1,1-0.7,1c0.3,0,5.1,0,5.4,0c0.4,0,4.7,0,5.1,0C1265.1,821.9,1264.4,821.6,1263.7,820.9L1263.7,820.9z M1274.9,812.9
				L1274.9,812.9h-31.4v-17.2h31.4V812.9z M1275.5,793.3h-32.8c-1,0-1.7,0.7-1.7,1.7v20.6c0,0.7,0.7,1,1.7,1h32.8c1,0,1.7-0.3,1.7-1
				V795C1277.2,794,1276.6,793.3,1275.5,793.3L1275.5,793.3z M1253.2,824.3h12.5V823h-12.5V824.3z M1208,820.9c-0.3-0.3-0.7-1-0.7-1
				v-1.7h-7.4l-0.3,1.7c0,0,0,0.6-0.6,1c-0.7,0.7-1,1-0.7,1c0.7,0,5.1,0,5.4,0c0.3,0,4.7,0,5.1,0
				C1209.3,821.9,1208.6,821.6,1208,820.9L1208,820.9z M1219.1,812.9L1219.1,812.9h-31.4v-17.2h31.4V812.9z M1220.1,793.3H1187
				c-0.7,0-1.7,0.7-1.7,1.7v20.6c0,0.7,1,1,1.7,1h33.1c0.7,0,1.3-0.3,1.3-1V795C1221.5,794,1220.8,793.3,1220.1,793.3L1220.1,793.3z
				 M1197.5,824.3h12.5V823h-12.5V824.3z M1258.3,786.2c0,1,0.7,1.7,1.7,1.7c0.7,0,1.3-0.6,1.3-1.7v-5.8c0-0.6-0.7-1.3-1.3-1.3h-27
				v-4c0-1-0.7-1.7-1.3-1.7c-1,0-1.7,0.6-1.7,1.7v4h-26.7c-1,0-1.7,0.7-1.7,1.3v5.8c0,1,0.7,1.7,1.7,1.7c0.7,0,1.4-0.6,1.4-1.7v-4
				h53.7V786.2z M1225.9,769.4h12.5V768h-12.5V769.4z"/>
		</g>
		<g>
			<path class="st13" d="M1659.6,809.2c0,0,0,0-0.6,0h-126.5c-0.5,0-0.5,0-0.5,0v0.5c0,0,1.7,12.1,16.5,12.1h94.4
				c15,0,16.6-12.1,16.6-12.1C1660.1,809.8,1659.6,809.2,1659.6,809.2L1659.6,809.2z M1545.8,804.2h99.9c1.7,0,2.8-1.1,2.8-2.2
				v-61.8c0-1.7-1.1-2.7-2.8-2.7h-99.9c-1.7,0-2.8,1.1-2.8,2.7V802C1543,803.2,1544.1,804.2,1545.8,804.2L1545.8,804.2z
				 M1551.8,746.8L1551.8,746.8h87.7v48.6h-87.7V746.8z M1605.4,817.5L1605.4,817.5h-19.4v-4.4h19.4V817.5z"/>
		</g>
		<g>
			<path class="st13" d="M1319.4,818.6v-20.4h89.4v20.4H1319.4z M1319.4,739.6h89.4V760h-89.4V739.6z M1355.7,756.1L1355.7,756.1
				h14.7v-12.7h-14.7V756.1z M1319.4,768.9h89.4v20.5h-89.4V768.9z M1386.5,785.4L1386.5,785.4h15v-12.7h-15V785.4z M1341.8,801.6
				L1341.8,801.6h-14.6v13.1h14.6V801.6z"/>
		</g>
		<g>
			<path class="st13" d="M1496.7,737.1h-40.7c-1.8,0-3.3,1.8-3.3,3.6v76.7c0,1.8,1.5,3.2,3.3,3.2h40.7c2.2,0,3.6-1.4,3.6-3.2v-77
				C1500.3,738.9,1498.8,737.1,1496.7,737.1L1496.7,737.1z M1469.3,744.3L1469.3,744.3c0.4,0,0.4,0,0.4,0.3s0,0.3-0.4,0.3
				c-0.3,0-0.3,0-0.3-0.3S1468.9,744.3,1469.3,744.3L1469.3,744.3z M1466.4,743.9L1466.4,743.9c0.3,0,0.7,0.4,0.7,0.7
				s-0.4,0.7-0.7,0.7c-0.7,0-0.7-0.3-0.7-0.7S1465.7,743.9,1466.4,743.9L1466.4,743.9z M1462.8,743.2L1462.8,743.2
				c0.4,0,1.1,0.7,1.1,1.4c0,0.3-0.7,0.7-1.1,0.7c-0.7,0-1-0.3-1-0.7C1461.7,743.9,1462.1,743.2,1462.8,743.2L1462.8,743.2z
				 M1458.8,743.2L1458.8,743.2c0.7,0,1.1,0.7,1.1,1.4c0,0.7-0.3,1-1.1,1c-0.7,0-1.4-0.3-1.4-1
				C1457.4,743.9,1458.1,743.2,1458.8,743.2L1458.8,743.2z M1476.5,808.8L1476.5,808.8c2.9,0,5.1,2.1,5.1,5c0,2.5-2.2,5.1-5.1,5.1
				c-2.9,0-5.1-2.5-5.1-5.1C1471.4,810.9,1473.6,808.8,1476.5,808.8L1476.5,808.8z M1472.1,744.3L1472.1,744.3h8.3
				c0.3,0,0.7,0.3,0.7,0.3c0,0.7-0.3,0.7-0.7,0.7h-8.3c-0.7,0-0.7,0-0.7-0.7C1471.4,744.7,1471.4,744.3,1472.1,744.3L1472.1,744.3z
				 M1496.3,807.3L1496.3,807.3h-39.7v-56.9h39.7V807.3z"/>
		</g>
		<g>
			<linearGradient id="SVGID_11_" gradientUnits="userSpaceOnUse" x1="1096.4312" y1="745.6738" x2="1108.6582" y2="745.6738">
				<stop  offset="0" style="stop-color:#5EC199"/>
				<stop  offset="0.608" style="stop-color:#3E60AD"/>
			</linearGradient>
			<path class="st14" d="M1099,748.3L1099,748.3c0-1.7,0.5-3.3,1.7-4.5c1.2-1.2,2.8-1.7,4.5-1.7c0.7,0,1.2,0,1.9,0.1
				c0.7,0.3,1.3-0.1,1.5-0.8c0.3-0.7-0.1-1.3-0.8-1.6c-0.8-0.1-1.7-0.3-2.5-0.3c-2.3,0-4.5,0.8-6.3,2.5c-1.7,1.7-2.5,4-2.5,6.3
				c0,0.9,0.1,1.7,0.4,2.5c0.1,0.5,0.5,0.9,1.1,0.9h0.4c0.7-0.1,1.1-0.8,0.9-1.5C1099,749.5,1099,749,1099,748.3L1099,748.3z"/>
			<path class="st15" d="M1161.3,823L1161.3,823h-13.1c-2.7,0-7.2,0-10,0h-13.1c-0.3,0-0.5,0-0.5,0c-1.1-0.1-1.3-0.5-1.3-1.1v-0.3
				c0-0.3,0.1-0.7,0.4-1.1v-0.1l6.5-11.3c1.5-2.3,3.6-6.3,5.1-8.5l1.9-3.3c2.1-0.9,4.4-2,6.5-3.5c0.4-0.1,0.7-0.4,1.1-0.7
				c0.3-0.3,0.7-0.4,0.9-0.7c0.3-0.1,0.4-0.3,0.7-0.4l4.8,8.5c1.5,2.3,3.6,6.3,5.1,8.5l6.5,11.5c0.3,0.5,0.4,0.9,0.4,1.3
				C1163.2,822.4,1162.9,823,1161.3,823L1161.3,823z"/>
			<path class="st15" d="M1121.5,819.2L1121.5,819.2c-0.3,0.4-0.4,0.8-0.5,1.2h-1.1c-1.6-0.1-1.7-0.5-1.9-1.2c0-0.3,0.1-0.8,0.4-1.2
				l6.7-11.5c1.2-2,2.9-5.1,4.3-7.5c1.3-0.1,2.8-0.4,4.1-0.7l-0.5,0.8c-1.3,2.4-3.6,6.3-4.9,8.7L1121.5,819.2z"/>
			<linearGradient id="SVGID_12_" gradientUnits="userSpaceOnUse" x1="1101.3534" y1="770.3658" x2="1157.5599" y2="770.3658">
				<stop  offset="0" style="stop-color:#5EC199"/>
				<stop  offset="0.608" style="stop-color:#3E60AD"/>
			</linearGradient>
			<path class="st16" d="M1120.3,798.4L1120.3,798.4c-0.8,0-1.6,0.1-2.3,0.1c-0.3,0-0.7,0-0.8,0c-0.5,0-0.9,0-1.5,0
				c-4.1-0.3-7.6-1.7-10.1-4.3c-2.9-2.9-4.3-6.9-4.3-11.6c-0.1-3.2,0.5-6.7,1.9-10.3c-0.7,2.5-1.1,4.9-1.1,7.2
				c0,4.3,1.2,8.1,4.1,11.1c1.7,1.6,3.7,2.7,6,3.3c0.5,0.3,1.1,0.4,1.6,0.4c0.5,0.1,1.1,0.1,1.6,0.3c0.7,0,1.2,0,1.7,0
				c4.5,0,9.5-1.3,14.3-4c0.8-0.5,1.5-0.8,2.1-1.3c1.2-0.8,2.4-1.6,3.5-2.4c0.4-0.4,0.8-0.7,1.1-0.9c1.1-0.8,1.9-1.7,2.8-2.5
				c7.3-7.3,11.3-16.1,11.3-23.8c0-1.5-0.1-2.9-0.4-4.3c-0.1-0.5-0.3-1.1-0.5-1.5c-0.1-0.7-0.4-1.1-0.5-1.6
				c-0.7-1.3-1.6-2.7-2.7-3.7c-2.8-2.8-6.8-4.1-10.9-4.1c-5.2,0-10.9,1.9-16.3,5.3c7.1-4.9,14.4-7.6,20.7-7.6
				c4.8,0,8.8,1.5,11.6,4.3c2.5,2.7,4,6.1,4.3,10.3c0,0.4,0,0.9,0,1.3c0,0.3,0,0.5,0,0.8c0,0.8,0,1.6-0.1,2.4
				c-0.9,7.7-5.5,16.7-12.9,24c-0.9,1.1-2,1.9-2.9,2.8c-0.3,0.3-0.5,0.4-0.8,0.7c-0.4,0.3-0.7,0.5-0.9,0.8c-0.4,0.3-0.7,0.5-1.1,0.8
				c-0.3,0.1-0.5,0.4-0.8,0.5c-1.9,1.3-3.7,2.5-5.7,3.5c-0.7,0.4-1.3,0.8-2,1.1c-0.7,0.3-1.2,0.5-2,0.8
				C1125.5,797.3,1122.9,798,1120.3,798.4L1120.3,798.4z"/>
			<path class="st15" d="M1110.3,763.6L1110.3,763.6l2,7.1l1.2,4.5l0.5,2l0.5,2.1l1.5,5.6l1.2-0.4l1.2-0.3l-0.1-0.7l-2.1-8.1
				l-0.5-1.9l-0.4-1.7l-0.5-1.7l-2.4-9.1l-0.5-1.5l-0.1-1.1l-0.1-0.5l-0.3-0.9l-0.4-1.5l-0.3-0.8l0.5,0.5l0.8,0.8l0.7,0.7l0.3,0.3
				l0.7,0.7l0.9,0.9l6,6l0.9,0.9l0.9,0.8l10.3,10.7l1.7-1.7l-10.4-10.7l-0.8-0.9l-0.9-0.8l-6-6.1l-0.9-0.8l-0.7-0.8l-0.1-0.1
				l-0.8-0.7l-0.8-0.9l-0.5-0.4l0.8,0.1l1.3,0.4l1.2,0.3l0.3,0.1l1.2,0.3l1.5,0.4l9.1,2.4l1.2,0.4l1.7,0.4l1.6,0.5l7.6,2l0.8,0.1
				l0.3-1.2l0.3-1.2l-5.6-1.5l-1.9-0.5l-1.9-0.5l-3.5-0.9l-7.2-1.9c5.5-3.7,11.2-5.7,16.1-5.7c3.7,0,6.8,1.2,9.2,3.5
				c0.4,0.4,0.7,0.8,1.1,1.2c0.3,0.5,0.7,0.9,0.8,1.5c0.3,0.4,0.5,0.9,0.7,1.3c0.5,1.5,0.8,3.2,0.8,5.2c0.1,6.7-3.6,15.1-10.5,21.9
				c-6.9,6.9-15.2,10.7-22,10.7c-1.1,0-2.1-0.1-3.2-0.4c-0.4-0.1-0.9-0.3-1.3-0.3c-0.5-0.3-1.1-0.4-1.5-0.7
				c-1.2-0.5-2.3-1.2-3.2-2.1c-2.3-2.3-3.3-5.5-3.3-9.2C1104.7,774.6,1106.6,768.9,1110.3,763.6L1110.3,763.6z"/>
			<path class="st15" d="M1110.4,751.3L1110.4,751.3c0,0.4-0.1,0.8-0.5,1.1c-0.3,0.4-0.7,0.5-1.1,0.7h-0.1c-0.4,0-0.8-0.3-1.2-0.7
				c-0.4-0.3-0.5-0.7-0.5-1.2c0-0.4,0.1-0.8,0.5-1.2c0.4-0.4,0.8-0.5,1.2-0.5c0.4,0,0.9,0.1,1.2,0.5c0.4,0.4,0.5,0.8,0.5,1.2V751.3z
				"/>
			<linearGradient id="SVGID_13_" gradientUnits="userSpaceOnUse" x1="1091.2261" y1="743.0018" x2="1107.5798" y2="743.0018">
				<stop  offset="0" style="stop-color:#5EC199"/>
				<stop  offset="0.608" style="stop-color:#3E60AD"/>
			</linearGradient>
			<path class="st17" d="M1093.6,746.7c0-2.5,0.9-4.9,2.8-6.8c1.9-1.7,4.3-2.7,6.8-2.7c0.9,0,1.9,0.1,2.8,0.3
				c0.7,0.3,1.3-0.1,1.5-0.8c0.3-0.7-0.3-1.3-0.8-1.6c-1.2-0.3-2.4-0.4-3.5-0.4c-3.2,0-6.3,1.1-8.5,3.5c-2.4,2.3-3.5,5.5-3.5,8.5
				c0,1.2,0.1,2.4,0.4,3.6c0.1,0.5,0.7,0.9,1.2,0.9h0.4c0.7-0.3,0.9-0.9,0.8-1.6C1093.8,748.7,1093.6,747.7,1093.6,746.7
				L1093.6,746.7z"/>
		</g>
		<g>
			<polygon class="st18" points="961.3,740.3 1067.7,740.3 1068.9,740.3 1068.9,741.6 1068.9,822.7 1068.9,824.2 1067.7,824.2 
				961.3,824.2 960.2,824.2 960.2,822.7 960.2,741.6 960.2,740.3 			"/>
			<rect x="962.8" y="758.6" class="st19" width="103.6" height="62.9"/>
			<rect x="1007.2" y="745" class="st19" width="54.3" height="9.9"/>
			<rect x="966.7" y="746.1" class="st19" width="9.9" height="8.4"/>
			<rect x="979.8" y="746.1" class="st19" width="9.9" height="8.4"/>
			<linearGradient id="SVGID_14_" gradientUnits="userSpaceOnUse" x1="986.9239" y1="777.1879" x2="994.4593" y2="777.1879">
				<stop  offset="0" style="stop-color:#5EC199"/>
				<stop  offset="0.608" style="stop-color:#3E60AD"/>
			</linearGradient>
			<path class="st20" d="M990.6,773.4c2.2,0,3.9,1.7,3.9,3.7c0,2.4-1.7,3.9-3.9,3.9c-2.1,0-3.7-1.5-3.7-3.9
				C986.9,775.1,988.4,773.4,990.6,773.4L990.6,773.4z"/>
			<linearGradient id="SVGID_15_" gradientUnits="userSpaceOnUse" x1="986.9239" y1="767.5013" x2="994.4593" y2="767.5013">
				<stop  offset="0" style="stop-color:#5EC199"/>
				<stop  offset="0.608" style="stop-color:#3E60AD"/>
			</linearGradient>
			<path class="st21" d="M990.6,763.7c2.2,0,3.9,1.7,3.9,3.9c0,2.2-1.7,3.7-3.9,3.7c-2.1,0-3.7-1.5-3.7-3.7
				C986.9,765.5,988.4,763.7,990.6,763.7L990.6,763.7z"/>
			<linearGradient id="SVGID_16_" gradientUnits="userSpaceOnUse" x1="995.966" y1="777.2956" x2="1042.2515" y2="777.2956">
				<stop  offset="0" style="stop-color:#5EC199"/>
				<stop  offset="0.608" style="stop-color:#3E60AD"/>
			</linearGradient>
			<rect x="996" y="773.9" class="st22" width="46.3" height="6.9"/>
			<linearGradient id="SVGID_17_" gradientUnits="userSpaceOnUse" x1="986.9239" y1="787.3032" x2="994.4593" y2="787.3032">
				<stop  offset="0" style="stop-color:#5EC199"/>
				<stop  offset="0.608" style="stop-color:#3E60AD"/>
			</linearGradient>
			<path class="st23" d="M990.6,783.5c2.2,0,3.9,1.7,3.9,3.9c0,1.9-1.7,3.7-3.9,3.7c-2.1,0-3.7-1.7-3.7-3.7
				C986.9,785.3,988.4,783.5,990.6,783.5L990.6,783.5z"/>
			<linearGradient id="SVGID_18_" gradientUnits="userSpaceOnUse" x1="995.966" y1="787.3076" x2="1042.2515" y2="787.3076">
				<stop  offset="0" style="stop-color:#5EC199"/>
				<stop  offset="0.608" style="stop-color:#3E60AD"/>
			</linearGradient>
			<rect x="996" y="784" class="st24" width="46.3" height="6.7"/>
			<linearGradient id="SVGID_19_" gradientUnits="userSpaceOnUse" x1="986.9239" y1="796.7829" x2="994.4593" y2="796.7829">
				<stop  offset="0" style="stop-color:#5EC199"/>
				<stop  offset="0.608" style="stop-color:#3E60AD"/>
			</linearGradient>
			<path class="st25" d="M990.6,793c2.2,0,3.9,1.7,3.9,3.9c0,1.9-1.7,3.7-3.9,3.7c-2.1,0-3.7-1.7-3.7-3.7
				C986.9,794.7,988.4,793,990.6,793L990.6,793z"/>
			<linearGradient id="SVGID_20_" gradientUnits="userSpaceOnUse" x1="995.966" y1="796.7818" x2="1042.2515" y2="796.7818">
				<stop  offset="0" style="stop-color:#5EC199"/>
				<stop  offset="0.608" style="stop-color:#3E60AD"/>
			</linearGradient>
			<rect x="996" y="793.4" class="st26" width="46.3" height="6.7"/>
			<linearGradient id="SVGID_21_" gradientUnits="userSpaceOnUse" x1="995.966" y1="767.608" x2="1042.2515" y2="767.608">
				<stop  offset="0" style="stop-color:#5EC199"/>
				<stop  offset="0.608" style="stop-color:#3E60AD"/>
			</linearGradient>
			<rect x="996" y="764.2" class="st27" width="46.3" height="6.9"/>
		</g>
		<g>
			<linearGradient id="SVGID_22_" gradientUnits="userSpaceOnUse" x1="1701.1132" y1="779.0418" x2="1744.5999" y2="779.0418">
				<stop  offset="0" style="stop-color:#5EC199"/>
				<stop  offset="0.608" style="stop-color:#3E60AD"/>
			</linearGradient>
			<path class="st28" d="M1730.3,767.4c-5.5,0-11.1,1.2-16.2,3.2c-4.9,1.9-9.3,4.9-12.9,8.6l12.7,11.6c4.4-4.4,10.2-6.7,16.4-6.7
				c5.3,0,10.2,1.6,14.3,4.9v-19C1740,768.1,1735.3,767.4,1730.3,767.4L1730.3,767.4z"/>
			<linearGradient id="SVGID_23_" gradientUnits="userSpaceOnUse" x1="1682.1455" y1="756.3697" x2="1778.3711" y2="756.3697">
				<stop  offset="0" style="stop-color:#5EC199"/>
				<stop  offset="0.608" style="stop-color:#3E60AD"/>
			</linearGradient>
			<path class="st29" d="M1694.4,771.8c9.5-9,22.4-14.1,35.9-14.1c10.4,0,20.4,2.8,28.7,8.3c2.8-0.9,5.1-2.3,6.7-3.7l3.5-3.2
				c0,0,4.4,4.2,5.1,4.6l4.2-3.9c-6.2-6-13.7-10.6-21.7-13.9c-8.3-3.2-17.1-4.9-26.4-4.9c-9.3,0-18,1.6-26.4,5.1
				c-8.3,3.2-15.5,7.9-21.7,13.9L1694.4,771.8z"/>
			<path class="st30" d="M1769.1,765.7c-1.6,1.4-3.7,2.6-5.8,3.7c-4.6,2.1-9.7,3-12,3.5c-1.2,0-1.6,0-1.6,0v14.6v2.3
				c0,12,19.4,20.6,19.4,20.6s19.2-8.5,19.2-20.6v-16.9c0,0-10.6-0.7-17.6-6C1770,766.7,1769.6,766.2,1769.1,765.7L1769.1,765.7z"/>
			<path class="st30" d="M1730.3,794.4c5.6,0,9.9,4.2,9.9,9.5c0,5.3-4.4,9.5-9.9,9.5c-5.5,0-9.9-4.2-9.9-9.5
				C1720.3,798.6,1724.7,794.4,1730.3,794.4L1730.3,794.4z"/>
		</g>
		<g>
			<linearGradient id="SVGID_24_" gradientUnits="userSpaceOnUse" x1="857.2075" y1="785.4396" x2="884.2509" y2="785.4396">
				<stop  offset="0" style="stop-color:#5EC199"/>
				<stop  offset="0.608" style="stop-color:#3E60AD"/>
			</linearGradient>
			<path class="st31" d="M883.7,771.9h-26c-0.3,0-0.5,0.2-0.5,0.5v26c0,0.3,0.2,0.5,0.5,0.5h26c0.3,0,0.5-0.2,0.5-0.5v-26
				C884.3,772.2,884,771.9,883.7,771.9L883.7,771.9z M883.7,771.9"/>
			<path class="st32" d="M909.7,790.4c2.8,0,5-2.2,5-5c0-2.8-2.2-5-5-5h-7.8v-4h7.8c2.8,0,5-2.2,5-5c0-2.8-2.2-5-5-5h-7.8
				c-0.5-6.5-5.7-11.7-12.2-12.1v-7.8c0-2.8-2.2-5-5-5c-2.8,0-5,2.2-5,5v7.8h-4.1v-7.8c0-2.8-2.2-5-5-5c-2.8,0-5,2.2-5,5v7.8h-4
				v-7.8c0-2.8-2.2-5-5-5c-2.8,0-5,2.2-5,5v7.8c-6.5,0.5-11.7,5.7-12.1,12.1h-7.8c-2.8,0-5,2.2-5,5c0,2.8,2.2,5,5,5h7.8v4h-7.8
				c-2.8,0-5,2.2-5,5c0,2.8,2.2,5,5,5h7.8v4h-7.8c-2.8,0-5,2.2-5,5c0,2.8,2.2,5,5,5h7.8c0.5,6.5,5.7,11.7,12.1,12.1v7.8
				c0,2.8,2.2,5,5,5c2.8,0,5-2.2,5-5v-7.8h4v7.8c0,2.8,2.2,5,5,5c2.8,0,5-2.2,5-5v-7.8h4.1v7.8c0,2.8,2.2,5,5,5c2.8,0,5-2.2,5-5
				v-7.8c6.5-0.5,11.7-5.7,12.2-12.1h7.8c2.8,0,5-2.2,5-5c0-2.8-2.2-5-5-5h-7.8v-4.1H909.7z M892.2,798.4c0,4.7-3.8,8.5-8.5,8.5h-26
				c-4.7,0-8.5-3.8-8.5-8.5v-26c0-4.7,3.8-8.5,8.5-8.5h26c4.7,0,8.5,3.8,8.5,8.5V798.4z M892.2,798.4"/>
		</g>
		<path class="st15" d="M791.8,779.3c0,4.2-3.5,7.6-7.9,7.6c-2.5,0-4.9-1.4-6.2-3.5c-0.9-1.2-2.3-2.3-3.7-2.3h-33.1
			c-1.4,0-2.3,1.2-1.8,2.5l1.6,7.6c1.2,4.9,6.2,9,11.6,9h10.9c1.4,0,2.8-1.2,3.5-2.3c1.4-2.1,3.7-3.5,6.5-3.5c4.2,0,7.6,3.5,7.6,7.6
			c0,4.2-3.5,7.9-7.6,7.9c-2.8,0-5.1-1.6-6.5-3.7c-0.7-1.2-2.1-2.3-3.5-2.3h-10.9c-6.9,0-13.6-5.3-15.3-12l-1.9-8.3
			c-0.5-1.4-1.9-2.5-3.2-2.5h-35.4c-1.4,0-2.8,1.2-3,2.5c-2.1,6.2-7.9,10.6-14.8,10.6c-8.3,0-15-6.7-15-15c0-8.3,6.7-15.3,15-15.3
			c6.9,0,12.7,4.6,14.8,10.9c0.2,1.4,1.6,2.5,3,2.5h20.8c1.4,0,2.8-1.2,3.2-2.5l3.2-10.2c2.3-6.5,9.3-11.6,16.2-11.6h4.9
			c1.4,0,3-1.2,3.9-2.3c1.2-1.8,3.5-2.8,6-2.8c4.2,0,7.6,3.5,7.6,7.6c0,4.2-3.5,7.6-7.6,7.6c-3,0-5.5-1.6-6.9-3.9
			c-0.5-1.2-1.9-2.3-3.2-2.3H740c-5.1,0-10.9,3.9-12.5,8.8l-3,9c-0.5,1.4,0.5,2.5,1.8,2.5H774c1.4,0,2.8-1.2,3.7-2.5
			c1.4-1.9,3.7-3.5,6.2-3.5C788.3,771.4,791.8,774.9,791.8,779.3L791.8,779.3z"/>
	</g>
</g>
</svg>
